<svg width="25" height="25" viewBox="0 0 25 25" fill="none" xmlns="http://www.w3.org/2000/svg">
<g clip-path="url(#clip0_12003_35)">
<path d="M13.0002 2C7.47725 2 3.00024 6.477 3.00024 12C3.00024 17.013 6.69325 21.153 11.5052 21.876V14.65H9.03125V12.021H11.5052V10.272C11.5052 7.376 12.9162 6.105 15.3232 6.105C16.4762 6.105 17.0852 6.19 17.3742 6.229V8.523H15.7322C14.7102 8.523 14.3532 9.492 14.3532 10.584V12.021H17.3482L16.9422 14.65H14.3542V21.897C19.2352 21.236 23.0002 17.062 23.0002 12C23.0002 6.477 18.5232 2 13.0002 2Z" fill="#7B7B7B"/>
</g>
<defs>
<clipPath id="clip0_12003_35">
<rect width="25" height="25" rx="12.5" fill="white"/>
</clipPath>
</defs>
</svg>
